<svg version="1.0" xmlns="http://www.w3.org/2000/svg"
 width="23.000000pt" height="21.000000pt" viewBox="0 0 23.000000 21.000000"
 preserveAspectRatio="xMidYMid meet">

<g transform="translate(0.000000,21.000000) scale(0.100000,-0.100000)"
fill="#000000" stroke="none">
<path d="M21 157 c-33 -41 -14 -138 31 -153 21 -6 58 20 58 42 0 7 12 14 28
16 21 2 28 9 30 31 2 16 -2 35 -9 43 -13 16 -49 19 -49 4 0 -5 -9 -10 -21 -10
-16 0 -20 -6 -18 -27 1 -16 1 -41 0 -58 l-2 -30 -24 28 c-26 30 -32 74 -15
108 12 22 8 25 -9 6z m77 -68 c-3 -8 -7 -3 -11 10 -4 17 -3 21 5 13 5 -5 8
-16 6 -23z"/>
<path d="M198 112 c3 -40 0 -51 -22 -71 -29 -28 -33 -41 -11 -41 27 0 57 60
51 104 -7 56 -22 63 -18 8z"/>
</g>
</svg>
